<?xml version="1.0" encoding="UTF-8" standalone="no"?>
<svg
   xmlns:dc="http://purl.org/dc/elements/1.1/"
   xmlns:cc="http://creativecommons.org/ns#"
   xmlns:rdf="http://www.w3.org/1999/02/22-rdf-syntax-ns#"
   xmlns:svg="http://www.w3.org/2000/svg"
   xmlns="http://www.w3.org/2000/svg"
   xmlns:sodipodi="http://sodipodi.sourceforge.net/DTD/sodipodi-0.dtd"
   xmlns:inkscape="http://www.inkscape.org/namespaces/inkscape"
   width="1200"
   height="533.33331"
   version="1.1"
   id="svg19"
   sodipodi:docname="rocket_Light_word.svg"
   inkscape:version="1.0.2 (e86c870879, 2021-01-15, custom)">
  <metadata
     id="metadata25">
    <rdf:RDF>
      <cc:Work
         rdf:about="">
        <dc:format>image/svg+xml</dc:format>
        <dc:type
           rdf:resource="http://purl.org/dc/dcmitype/StillImage" />
        <dc:title>rocket</dc:title>
      </cc:Work>
    </rdf:RDF>
  </metadata>
  <defs
     id="defs23">
    <clipPath
       clipPathUnits="userSpaceOnUse"
       id="clipPath111">
      <rect
         style="fill:#5599ff"
         id="rect113"
         width="79.432976"
         height="29.486485"
         x="301.48425"
         y="-89.662987" />
    </clipPath>
  </defs>
  <sodipodi:namedview
     pagecolor="#ffffff"
     bordercolor="#666666"
     borderopacity="1"
     objecttolerance="10"
     gridtolerance="10"
     guidetolerance="10"
     inkscape:pageopacity="0"
     inkscape:pageshadow="2"
     inkscape:window-width="1366"
     inkscape:window-height="706"
     id="namedview21"
     showgrid="false"
     inkscape:zoom="0.50343752"
     inkscape:cx="650.08232"
     inkscape:cy="195.31547"
     inkscape:window-x="-8"
     inkscape:window-y="-8"
     inkscape:window-maximized="1"
     inkscape:current-layer="g846"
     inkscape:document-rotation="0"
     units="mm" />
  <title
     id="title2">rocket</title>
  <g
     id="g17">
    <title
       id="title4">Layer 1</title>
    <g
       externalResourcesRequired="false"
       id="g846">
      <path
         fill="#ff4000"
         fill-rule="evenodd"
         stroke-width="3.75"
         id="path671"
         d="m 218.57078,393.75736 c 0,0 -12.77112,37.85778 -27.24417,69.69308 -14.47409,31.83633 -40.01636,47.32324 -43.42224,47.32324 -3.40491,0 -6.81079,-18.06839 -5.95932,-28.39334 0.85147,-10.32492 24.69076,-30.97583 -16.17703,1.72 -40.866796,32.6958 -69.813939,46.46271 -67.259496,35.27732 -4.257385,-27.53388 43.421206,-85.181 12.770111,-74.85608 C 40.62855,454.8465 -11.306417,478.93836 21.04661,441.07959 53.399668,403.2218 86.604166,386.01291 58.507517,386.87338 30.411814,387.73389 3.167643,400.64032 16.789255,375.68796 30.411814,350.7356 95.94932,311.93005 124.04499,295.58164 c 22.13636,11.18545 65.57764,40.52755 94.52579,98.17572 z"
         style="fill:#ff0000" />
      <path
         fill="#ffff33"
         fill-opacity="0.696296"
         fill-rule="evenodd"
         stroke-width="12.5"
         stroke-linejoin="round"
         id="path672"
         d="m 205.85188,372.74301 c 0,0 -9.32703,44.94 -19.50202,58.50598 -10.17499,13.56702 -12.71899,11.871 -15.263,-6.78299 -2.544,-18.65399 15.263,-37.30899 -15.26199,-16.95801 -30.526,20.35001 -56.81101,45.78702 -41.54901,14.41401 15.263,-31.37299 19.50299,-39.004 -1.69501,-27.98099 -21.197997,11.02298 -41.54898,19.50198 -16.10998,-11.02301 19.501,-22.04599 -19.502018,-27.982 -26.286015,-30.525 -16.110992,2.54401 68.681005,-44.94101 77.160005,-44.94101 9.328,1.69602 55.116,58.50702 58.50702,65.29102 z" />
      <path
         fill="#ffff00"
         fill-rule="evenodd"
         stroke="#000000"
         stroke-width="10"
         stroke-linejoin="round"
         id="path663"
         d="m 472.09954,64.099018 c -78.857,1.695702 -278.11799,33.916607 -354.43098,229.786692 26.28598,5.08802 90.72699,67.83402 100.90198,102.59802 194.174,-99.20602 249.2894,-256.07201 253.529,-332.384712 z"
         style="fill:#00ccff" />
      <path
         fill="#ff0000"
         fill-rule="evenodd"
         stroke="#000000"
         stroke-width="10"
         stroke-linejoin="round"
         id="path664"
         d="m 326.25654,325.25873 c 0,0 -3.39099,86.48801 -3.39099,87.336 0,0.84799 -104.29501,48.332 -110.23001,50.876 l 5.087,-67.83401 c 9.327,0.84799 92.424,-52.57098 108.534,-70.37799 z"
         style="fill:#d400aa" />
      <path
         fill="#ff0000"
         fill-rule="evenodd"
         stroke="#000000"
         stroke-width="10"
         stroke-linejoin="round"
         id="path665"
         d="m 185.17234,184.3528 c 0,0 -85.53094,3.82004 -86.37869,3.84088 -0.84772,0.0208 -45.754397,105.45125 -48.151766,111.44698 l 67.688506,-6.75245 c 9.09866,-33.0456 46.89285,-88.60015 66.84195,-108.53541 z"
         style="fill:#d400aa" />
      <path
         fill="#ff0000"
         fill-rule="evenodd"
         stroke="#000000"
         stroke-width="10"
         stroke-linejoin="round"
         id="path666"
         d="m 254.58909,243.16905 c 0,0 -14.25998,34.12261 -16.66717,39.68585 -2.95383,3.74834 -77.58902,64.65636 -83.0676,68.07418 l 3.17886,-21.68073 c 7.99424,-7.69864 76.80338,-68.01597 96.55591,-86.0793 z"
         style="fill:#d400aa" />
      <path
         fill="#ff0000"
         fill-rule="evenodd"
         stroke="#000000"
         stroke-width="10"
         stroke-linejoin="round"
         id="path667"
         d="m 257.26933,242.39949 16.76851,24.28023 -20.6448,35.73391 -85.75396,67.74439 -12.38761,-18.54547 81.99137,-69.24004 z"
         style="fill:#d400aa" />
      <path
         fill="#bfbfbf"
         fill-rule="evenodd"
         stroke="#000000"
         stroke-width="12.5"
         stroke-linejoin="round"
         id="path668"
         d="m 365.26086,164.15401 c 28.8298,39.004 -30.524,87.336 -58.506,52.571 -33.91699,-42.39601 24.58901,-83.09601 58.506,-52.571 z" />
      <path
         fill="#aeffff"
         fill-rule="evenodd"
         stroke="#000000"
         stroke-width="10"
         stroke-linejoin="round"
         id="path669"
         d="m 365.26086,164.15401 c -36.09558,-26.30903 -80.49093,11.95508 -58.44593,48.41608 24.59,31.37201 83.24117,2.1796 58.44593,-48.41608 z"
         style="fill:#ffcc00"
         sodipodi:nodetypes="ccc" />
      <path
         sodipodi:type="star"
         style="fill:#0000ff"
         id="path8337"
         sodipodi:sides="5"
         sodipodi:cx="73.440086"
         sodipodi:cy="144.22842"
         sodipodi:r1="24.185316"
         sodipodi:r2="12.092658"
         sodipodi:arg1="1.2360595"
         sodipodi:arg2="1.864378"
         inkscape:flatsided="false"
         inkscape:rounded="0"
         inkscape:randomized="0"
         d="m 81.385461,167.07138 -11.444778,-11.2677 -15.770281,3.04011 7.179586,-14.36655 -7.764596,-14.05898 15.882007,2.38869 10.971495,-11.72904 2.636034,15.84283 14.545354,6.81004 -14.252848,7.40273 z"
         inkscape:transform-center-x="-2.1627505"
         inkscape:transform-center-y="-0.15377921" />
      <path
         sodipodi:type="star"
         style="fill:#ff2a2a"
         id="path8339"
         sodipodi:sides="5"
         sodipodi:cx="264.12912"
         sodipodi:cy="484.88638"
         sodipodi:r1="20.110197"
         sodipodi:r2="10.055099"
         sodipodi:arg1="0.57430483"
         sodipodi:arg2="1.2026234"
         inkscape:flatsided="false"
         inkscape:rounded="0"
         inkscape:randomized="0"
         d="m 281.01304,495.81127 -13.26498,-1.54362 -8.79171,10.05227 -2.63103,-13.09274 -12.27707,-5.2551 11.63891,-6.54814 1.20407,-13.3001 9.82427,9.04577 13.02123,-2.96481 -5.56718,12.13873 z"
         inkscape:transform-center-x="1.5984738"
         inkscape:transform-center-y="0.33549917" />
      <path
         d="m 342.83047,-88.088465 c 7.02576,6.912234 12.28368,16.175931 16.73468,26.897931 l -33.24445,-0.551688 c 5.47207,-11.408996 11.07785,-18.595512 16.50977,-26.346243 z M 330.4891,79.358307 h 5.049 l 5.267,18.794 c 0.58108,2.073713 3.52092,2.073713 4.102,0 l 5.267,-18.794 h 3.803 c 3.123,15.686 2.716,28.586993 -1.307,39.337993 -2.709,7.24 -7.092,18.536 -9.684,25.191 -1.521,-4.102 -4.189,-10.913 -8.823,-21.909 -7.65,-18.142 -4.771,-37.099993 -3.674,-42.619993 z"
         fill="#e8853d"
         id="path6-1"
         clip-path="url(#clipPath111)"
         transform="matrix(2.2218857,2.4957409,-2.4817201,2.2599846,-510.87505,-590.15603)"
         style="fill:#ff0000"
         sodipodi:nodetypes="cccccccccccccc" />
      <path
         sodipodi:type="star"
         style="fill:#d4aa00"
         id="path8339-9-5"
         sodipodi:sides="5"
         sodipodi:cx="385.04257"
         sodipodi:cy="324.11725"
         sodipodi:r1="20.110197"
         sodipodi:r2="10.055099"
         sodipodi:arg1="0.57430483"
         sodipodi:arg2="1.2026234"
         inkscape:flatsided="false"
         inkscape:rounded="0"
         inkscape:randomized="0"
         inkscape:transform-center-x="0.11873171"
         inkscape:transform-center-y="-1.8070808"
         d="m 401.92649,335.04214 -13.26497,-1.54362 -8.79172,10.05227 -2.63103,-13.09275 -12.27707,-5.25509 11.63891,-6.54815 1.20407,-13.30009 9.82428,9.04577 13.02122,-2.96482 -5.56717,12.13874 z"
         transform="rotate(20,290.30209,317.43213)" />
      <rect
         style="fill:#000000;stroke-width:0.775133"
         id="rect8394"
         width="32.663109"
         height="9.744031"
         x="237.92633"
         y="355.53809"
         transform="matrix(0.77100964,-0.63682347,0.8028696,0.59615468,0,0)"
         inkscape:transform-center-x="1.9638074"
         inkscape:transform-center-y="0.93296631"
         ry="0" />
      <circle
         style="fill:#ff0000;stroke-width:1.23286"
         id="path8396"
         cx="502.41281"
         cy="37.104176"
         r="9.7380505" />
      <path
         sodipodi:type="star"
         style="fill:#ff0000"
         id="path8339-9-5-3"
         sodipodi:sides="5"
         sodipodi:cx="385.04257"
         sodipodi:cy="324.11725"
         sodipodi:r1="20.110197"
         sodipodi:r2="10.055099"
         sodipodi:arg1="0.57430483"
         sodipodi:arg2="1.2026234"
         inkscape:flatsided="false"
         inkscape:rounded="0"
         inkscape:randomized="0"
         inkscape:transform-center-x="0.11873171"
         inkscape:transform-center-y="-1.8070808"
         transform="rotate(20,851.34283,-366.6625)"
         d="m 401.92649,335.04214 -13.26497,-1.54362 -8.79172,10.05227 -2.63103,-13.09275 -12.27707,-5.25509 11.63891,-6.54815 1.20407,-13.30009 9.82428,9.04577 13.02122,-2.96482 -5.56717,12.13874 z" />
      <path
         sodipodi:type="star"
         style="fill:#ff6600"
         id="path8339-9-5-2"
         sodipodi:sides="5"
         sodipodi:cx="385.04257"
         sodipodi:cy="324.11725"
         sodipodi:r1="20.110197"
         sodipodi:r2="10.055099"
         sodipodi:arg1="0.57430483"
         sodipodi:arg2="1.2026234"
         inkscape:flatsided="false"
         inkscape:rounded="0"
         inkscape:randomized="0"
         inkscape:transform-center-x="0.11873171"
         inkscape:transform-center-y="-1.8070808"
         transform="rotate(20,459.10512,-680.80733)"
         d="m 401.92649,335.04214 -13.26497,-1.54362 -8.79172,10.05227 -2.63103,-13.09275 -12.27707,-5.25509 11.63891,-6.54815 1.20407,-13.30009 9.82428,9.04577 13.02122,-2.96482 -5.56717,12.13874 z" />
      <text
         xml:space="preserve"
         style="font-style:normal;font-weight:normal;font-size:226.667px;line-height:1.25;font-family:sans-serif;fill:#000000;fill-opacity:1;stroke:none"
         x="540.28552"
         y="337.67847"
         id="text31"><tspan
           sodipodi:role="line"
           id="tspan29"
           x="540.28552"
           y="337.67847"
           style="font-style:normal;font-variant:normal;font-weight:normal;font-stretch:normal;font-size:226.667px;font-family:'Segoe Print';-inkscape-font-specification:'Segoe Print'">Light</tspan></text>
    </g>
  </g>
</svg>
